<svg width="44" height="44" fill="none" xmlns="http://www.w3.org/2000/svg"><path d="M34.959 22c0 7.157-5.802 12.958-12.959 12.958-7.156 0-12.958-5.801-12.958-12.958S14.844 9.042 22 9.042c7.157 0 12.959 5.801 12.959 12.958z" fill="url(#paint0_radial_267_439)"/><path fill-rule="evenodd" clip-rule="evenodd" d="M22.29 6.895a.917.917 0 01-.58 0l-1.254-.418a.917.917 0 00-1.206.87v.367c0 .546.536.933 1.055.76a.801.801 0 011.05.84l-.18 1.807a.83.83 0 101.65 0l-.18-1.807a.801.801 0 011.05-.84.801.801 0 001.055-.76v-.367a.917.917 0 00-1.206-.87l-1.254.418z" fill="url(#paint1_linear_267_439)"/><path fill-rule="evenodd" clip-rule="evenodd" d="M32.878 11.534a.916.916 0 01-.41-.41l-.591-1.182a.917.917 0 00-1.468-.239l-.26.26a.801.801 0 00.209 1.283c.52.26.599.969.15 1.337l-1.407 1.15a.83.83 0 101.167 1.168l1.15-1.407a.801.801 0 011.338.15.801.801 0 001.283.208l.259-.26a.917.917 0 00-.238-1.468l-1.182-.59z" fill="url(#paint2_linear_267_439)"/><path fill-rule="evenodd" clip-rule="evenodd" d="M37.12 22.342a.917.917 0 010-.58l.418-1.253a.917.917 0 00-.87-1.207h-.366a.801.801 0 00-.76 1.055.801.801 0 01-.84 1.05l-1.808-.18a.83.83 0 100 1.65l1.808-.18a.801.801 0 01.84 1.05.801.801 0 00.76 1.055h.367a.917.917 0 00.87-1.207l-.419-1.253z" fill="url(#paint3_linear_267_439)"/><path fill-rule="evenodd" clip-rule="evenodd" d="M32.443 32.943a.917.917 0 01.41-.41l1.182-.59a.917.917 0 00.238-1.469l-.259-.26a.801.801 0 00-1.283.21.801.801 0 01-1.337.148l-1.15-1.406a.83.83 0 10-1.168 1.167l1.406 1.15a.801.801 0 01-.149 1.338.801.801 0 00-.208 1.283l.26.26a.917.917 0 001.467-.24l.591-1.181z" fill="url(#paint4_linear_267_439)"/><path fill-rule="evenodd" clip-rule="evenodd" d="M22.29 37.096a.917.917 0 00-.58 0l-1.254.418a.917.917 0 01-1.206-.87v-.366a.801.801 0 011.055-.76.801.801 0 001.05-.84l-.18-1.808a.83.83 0 111.65 0l-.18 1.808a.801.801 0 001.05.84.801.801 0 011.055.76v.367a.917.917 0 01-1.206.87l-1.254-.419z" fill="url(#paint5_linear_267_439)"/><path fill-rule="evenodd" clip-rule="evenodd" d="M11.523 32.889a.917.917 0 00-.41-.41l-1.182-.591a.917.917 0 01-.238-1.468l.259-.26a.801.801 0 011.283.209c.26.52.969.599 1.337.15l1.15-1.407a.83.83 0 111.168 1.167l-1.406 1.15a.801.801 0 00.149 1.338c.489.244.595.896.208 1.283l-.26.259a.917.917 0 01-1.467-.238l-.591-1.182z" fill="url(#paint6_linear_267_439)"/><path fill-rule="evenodd" clip-rule="evenodd" d="M6.85 22.342a.917.917 0 000-.58l-.418-1.253a.917.917 0 01.87-1.207h.366c.547 0 .933.536.76 1.055a.801.801 0 00.84 1.05l1.808-.18a.83.83 0 110 1.65l-1.808-.18a.801.801 0 00-.84 1.05.801.801 0 01-.76 1.055H7.3a.917.917 0 01-.87-1.207l.418-1.253z" fill="url(#paint7_linear_267_439)"/><path fill-rule="evenodd" clip-rule="evenodd" d="M11.038 11.538a.917.917 0 00.41-.41l.591-1.182a.917.917 0 011.468-.238l.26.259a.801.801 0 01-.209 1.283.801.801 0 00-.15 1.337l1.407 1.15a.83.83 0 11-1.167 1.168l-1.15-1.406a.801.801 0 00-1.338.149.801.801 0 01-1.283.208l-.259-.259a.917.917 0 01.238-1.468l1.182-.591z" fill="url(#paint8_linear_267_439)"/><path fill-rule="evenodd" clip-rule="evenodd" d="M27.336 15.713c.296.003.586.064.815.252.255.208.467.486.49.814.024.349-.12.69-.366.94-.247.25-.589.418-.939.386-.328-.031-.607-.24-.83-.483-.212-.228-.384-.532-.394-.843-.01-.318.153-.621.393-.83.226-.197.532-.239.831-.236z" fill="url(#paint9_linear_267_439)" fill-opacity=".4"/><path fill-rule="evenodd" clip-rule="evenodd" d="M21.284 28.156c-.005.46-.1.914-.392 1.27-.325.398-.758.727-1.27.764-.543.038-1.076-.188-1.464-.57-.39-.385-.652-.918-.602-1.464.048-.512.35-.946.727-1.295.356-.33.854-.598 1.339-.614.496-.015.969.24 1.295.614.306.352.371.828.367 1.295z" fill="url(#paint10_linear_267_439)" fill-opacity=".4"/><path fill-rule="evenodd" clip-rule="evenodd" d="M29.89 23.477c.404.032.824.202 1.15.444.373.277.645.687.689 1.15.048.504-.054 1.072-.448 1.39-.376.305-.914.176-1.391.099-.382-.062-.704-.242-1.005-.484-.355-.285-.78-.555-.845-1.005-.071-.493.102-1.051.503-1.347.376-.277.882-.283 1.347-.247z" fill="url(#paint11_linear_267_439)" fill-opacity=".4"/><path fill-rule="evenodd" clip-rule="evenodd" d="M13.93 18.577c.297-.003.59.123.783.348.182.211.197.503.19.782-.007.27-.04.55-.227.746-.19.199-.47.287-.746.275-.263-.012-.494-.153-.682-.339-.19-.187-.336-.416-.352-.682a1.068 1.068 0 011.034-1.13z" fill="url(#paint12_linear_267_439)" fill-opacity=".4"/><path fill-rule="evenodd" clip-rule="evenodd" d="M24.183 22.547a2.816 2.816 0 01-2.042 1.168c-.765.059-1.436-.383-2.043-.851-.587-.454-1.152-.985-1.283-1.716-.132-.745.13-1.509.604-2.099.455-.564 1.143-.846 1.86-.96.721-.116 1.469-.067 2.083.33a2.871 2.871 0 011.269 1.838c.158.793.025 1.634-.448 2.29z" fill="url(#paint13_linear_267_439)" fill-opacity=".4"/><defs><linearGradient id="paint7_linear_267_439" x1="6.878" y1="22.052" x2="12.605" y2="22.159" gradientUnits="userSpaceOnUse"><stop stop-color="#F16037"/><stop offset="1" stop-color="#8F270A"/></linearGradient><linearGradient id="paint13_linear_267_439" x1="25.868" y1="20.252" x2="17.935" y2="21.747" gradientUnits="userSpaceOnUse"><stop stop-color="#4FBA6A"/><stop offset="1" stop-color="#1D4927"/></linearGradient><linearGradient id="paint2_linear_267_439" x1="32.631" y1="11.348" x2="27.578" y2="16.517" gradientUnits="userSpaceOnUse"><stop stop-color="#4FBA6A"/><stop offset="1" stop-color="#1D4927"/></linearGradient><linearGradient id="paint3_linear_267_439" x1="37.091" y1="22.052" x2="31.365" y2="22.159" gradientUnits="userSpaceOnUse"><stop stop-color="#F16037"/><stop offset="1" stop-color="#8F270A"/></linearGradient><linearGradient id="paint4_linear_267_439" x1="32.628" y1="32.696" x2="27.46" y2="27.643" gradientUnits="userSpaceOnUse"><stop stop-color="#4FBA6A"/><stop offset="1" stop-color="#1D4927"/></linearGradient><linearGradient id="paint5_linear_267_439" x1="22" y1="37.067" x2="22.107" y2="31.341" gradientUnits="userSpaceOnUse"><stop stop-color="#F16037"/><stop offset="1" stop-color="#8F270A"/></linearGradient><linearGradient id="paint6_linear_267_439" x1="11.338" y1="32.642" x2="16.506" y2="27.589" gradientUnits="userSpaceOnUse"><stop stop-color="#4FBA6A"/><stop offset="1" stop-color="#1D4927"/></linearGradient><linearGradient id="paint1_linear_267_439" x1="22" y1="6.924" x2="22.107" y2="12.651" gradientUnits="userSpaceOnUse"><stop stop-color="#F16037"/><stop offset="1" stop-color="#8F270A"/></linearGradient><linearGradient id="paint8_linear_267_439" x1="11.285" y1="11.353" x2="16.338" y2="16.521" gradientUnits="userSpaceOnUse"><stop stop-color="#4FBA6A"/><stop offset="1" stop-color="#1D4927"/></linearGradient><linearGradient id="paint9_linear_267_439" x1="26.111" y1="15.713" x2="28.503" y2="18.241" gradientUnits="userSpaceOnUse"><stop stop-color="#4FBA6A"/><stop offset="1" stop-color="#1D4927"/></linearGradient><linearGradient id="paint10_linear_267_439" x1="21.284" y1="26.247" x2="17.343" y2="29.975" gradientUnits="userSpaceOnUse"><stop stop-color="#4FBA6A"/><stop offset="1" stop-color="#1D4927"/></linearGradient><linearGradient id="paint11_linear_267_439" x1="28.024" y1="23.462" x2="31.18" y2="27.135" gradientUnits="userSpaceOnUse"><stop stop-color="#4FBA6A"/><stop offset="1" stop-color="#1D4927"/></linearGradient><linearGradient id="paint12_linear_267_439" x1="12.895" y1="18.577" x2="15.041" y2="20.582" gradientUnits="userSpaceOnUse"><stop stop-color="#4FBA6A"/><stop offset="1" stop-color="#1D4927"/></linearGradient><radialGradient id="paint0_radial_267_439" cx="0" cy="0" r="1" gradientUnits="userSpaceOnUse" gradientTransform="rotate(45 -15.556 37.557) scale(13.2088)"><stop stop-color="#97C93D"/><stop offset="1" stop-color="#4FBA69"/></radialGradient></defs></svg>